HIERARCHY
ROOT hip
{
	OFFSET 0.000000 0.000000 0.000000 
	CHANNELS 6 Xposition Yposition Zposition Xrotation Zrotation Yrotation
	JOINT abdomen
	{
		OFFSET 0.000000 3.402643 0.000000 
		CHANNELS 3 Xrotation Zrotation Yrotation
		JOINT chest
		{
			OFFSET 0.000000 8.438565 -0.680529 
			CHANNELS 3 Xrotation Zrotation Yrotation
			JOINT neck
			{
				OFFSET 0.000000 10.207942 -0.272212 
				CHANNELS 3 Xrotation Zrotation Yrotation
				JOINT head
				{
					OFFSET 0.000000 3.130431 0.000000 
					CHANNELS 3 Xrotation Zrotation Yrotation
					End Site
					{
						OFFSET 0.000000 3.130435 0.000000 
					}
				}
			}
			JOINT lCollar
			{
				OFFSET 3.470700 6.669187 -0.816635 
				CHANNELS 3 Yrotation Zrotation Xrotation
				JOINT lShldr
				{
					OFFSET 3.198488 0.000000 0.000000 
					CHANNELS 3 Zrotation Yrotation Xrotation
					JOINT lForeArm
					{
						OFFSET 10.139888 0.000000 0.000000 
						CHANNELS 3 Yrotation Zrotation Xrotation
						JOINT lHand
						{
							OFFSET 8.370511 0.000000 0.000000 
							CHANNELS 3 Zrotation Yrotation Xrotation
							End Site
							{
								OFFSET 4.083176 0.000000 0.000000 
							}
						}
					}
				}
			}
			JOINT rCollar
			{
				OFFSET -3.470700 6.669187 -0.816635 
				CHANNELS 3 Yrotation Zrotation Xrotation
				JOINT rShldr
				{
					OFFSET -3.198488 0.000000 0.000000 
					CHANNELS 3 Zrotation Yrotation Xrotation
					JOINT rForeArm
					{
						OFFSET -10.139888 0.000000 0.000000 
						CHANNELS 3 Yrotation Zrotation Xrotation
						JOINT rHand
						{
							OFFSET -8.370511 0.000000 0.000000 
							CHANNELS 3 Zrotation Yrotation Xrotation
							End Site
							{
								OFFSET -4.083176 0.000000 0.000000 
							}
						}
					}
				}
			}
		}
	}
	JOINT lThigh
	{
		OFFSET 5.308129 -1.633274 1.361059 
		CHANNELS 3 Xrotation Zrotation Yrotation
		JOINT lShin
		{
			OFFSET -2.041588 -20.007561 0.000000 
			CHANNELS 3 Xrotation Zrotation Yrotation
			JOINT lFoot
			{
				OFFSET 0.000000 -19.190928 -1.224953 
				CHANNELS 3 Xrotation Yrotation Zrotation
				End Site
				{
					OFFSET 0.000000 -2.449906 4.627600 
				}
			}
		}
	}
	JOINT rThigh
	{
		OFFSET -5.308129 -1.633274 1.361059 
		CHANNELS 3 Xrotation Zrotation Yrotation
		JOINT rShin
		{
			OFFSET 2.041588 -20.007561 0.000000 
			CHANNELS 3 Xrotation Zrotation Yrotation
			JOINT rFoot
			{
				OFFSET 0.000000 -19.190928 -1.224953 
				CHANNELS 3 Xrotation Yrotation Zrotation
				End Site
				{
					OFFSET 0.000000 -2.449906 4.627600 
				}
			}
		}
	}
}
MOTION
Frames: 15
Frame Time: 0.033333
-162.841049 46.670868 -239.704361 0.029297 0.048828 39.082069 21.036463 -0.680626 0.031101 -20.839844 0.000000 0.000000 -0.594698 -0.490415 2.839716 -2.520832 -1.255077 0.218355 -4.754609 -0.109184 -0.002653 -85.389496 -5.191854 33.835316 -2.692838 0.291152 7.680444 -4.420303 -5.678089 0.150414 4.754609 0.109184 -0.002672 82.929665 -0.376338 -7.795858 3.439524 -0.863762 72.038551 1.397787 4.311106 0.043438 7.015706 9.096443 8.116398 -4.764156 -3.804318 5.331184 -0.964661 0.188276 -3.143482 7.586290 -11.424218 -9.401831 -5.441955 3.384388 -10.726319 1.506828 -0.395717 6.278223 
-162.957809 46.662735 -239.609909 -0.136719 -0.156250 39.912479 21.094858 -0.596624 -0.052304 -20.839844 0.000000 0.000000 -1.536573 -0.682458 2.160103 -2.520832 -1.255077 0.218355 -4.754609 -0.109184 -0.002653 -86.003357 -3.857355 38.281467 -2.680408 0.259957 6.118207 -4.809193 -6.682243 0.216341 4.754609 0.109184 -0.002672 84.166908 -0.880640 -7.367656 3.498623 -0.863573 75.808853 -0.097986 5.835664 0.039057 7.127577 9.637807 6.811485 -5.514220 -3.774662 6.018456 -0.521513 0.155771 -2.984677 7.398959 -10.914959 -9.475542 -4.712911 3.346446 -11.396430 1.084458 -0.374211 5.887629 
-163.029892 46.661728 -239.569839 -0.214852 -0.507809 39.933540 21.104313 -0.507645 -0.038990 -20.839844 0.000000 0.000000 -2.077926 -0.555192 1.958579 -2.520832 -1.255077 0.218355 -4.754609 -0.109184 -0.002653 -85.588448 -3.259226 42.634769 -2.666515 0.203819 2.251401 -4.208944 -6.224259 0.179542 4.754609 0.109184 -0.002672 84.068207 0.032275 -6.341998 3.555729 -0.869053 79.491493 -1.138156 6.491642 0.004362 6.898062 10.110254 6.839645 -5.515649 -3.775384 5.979447 -0.376281 0.153262 -2.796177 6.980415 -10.457055 -9.947695 -4.225397 3.375711 -10.817447 0.864732 -0.396431 5.601777 
-163.005508 46.673409 -239.621109 -0.058597 -0.585937 39.385361 21.104288 -0.512431 0.001032 -20.839844 0.000000 0.000000 -2.292365 -0.624123 1.987288 -2.520832 -1.255077 0.218355 -4.754609 -0.109184 -0.002653 -84.643410 -3.227637 45.597271 -2.656186 0.157781 -0.844016 -3.000518 -5.444915 0.112936 4.754609 0.109184 -0.002672 82.986595 1.913587 -4.735686 3.623275 -0.861060 83.790375 -1.667093 6.150416 -0.017646 6.812674 9.956779 7.154594 -5.495723 -3.765363 6.280204 -0.289750 0.138568 -2.654753 6.755583 -10.554929 -10.618377 -4.373690 3.435004 -9.639195 1.062292 -0.358193 5.644095 
-162.969498 46.693207 -239.703323 0.107425 -0.458984 38.456097 21.124006 -0.598296 0.061892 -20.839844 0.000000 0.000000 -2.245484 -0.788033 2.381823 -2.520832 -1.255077 0.218355 -4.754609 -0.109184 -0.002653 -82.713608 -3.823558 46.017738 -2.656114 0.164372 -0.404613 -1.386170 -5.074759 0.079413 4.754609 0.109184 -0.002672 81.856430 4.592045 -3.003991 3.725308 -0.845143 89.883720 -2.343200 5.955930 -0.044095 6.874284 9.551106 7.013933 -5.486196 -3.707625 7.496824 -0.270551 0.138918 -2.675381 6.706554 -10.895949 -10.542352 -4.911987 3.474809 -8.907176 1.468561 -0.346198 5.808462 
-162.997391 46.709961 -239.734818 0.253920 -0.595697 37.087101 21.085026 -0.673092 0.148564 -20.839844 0.000000 0.000000 -1.702401 -0.368864 3.647066 -2.520832 -1.255077 0.218355 -4.754609 -0.109184 -0.002653 -79.853302 -4.964805 44.788280 -2.656415 0.193956 1.567850 -0.299985 -4.577379 0.052002 4.754609 0.109184 -0.002672 81.513229 8.163524 -0.920836 3.959754 -0.848682 98.890083 -3.404025 6.358156 -0.088934 6.726352 9.471551 6.981846 -5.166399 -3.619263 8.973214 -0.456287 0.157630 -2.659164 6.237450 -10.982648 -9.637635 -5.275096 3.510366 -8.466225 1.797802 -0.351439 5.811672 
-163.040054 46.718590 -239.716507 0.371127 -0.761703 35.492985 21.016672 -0.715890 0.206082 -20.839844 0.000000 0.000000 -0.854587 0.324295 5.106932 -2.520832 -1.255077 0.218355 -4.754609 -0.109184 -0.002653 -76.839485 -5.548996 42.646782 -2.666492 0.203240 2.212343 -0.533696 -4.001226 0.041260 4.754609 0.109184 -0.002672 80.714851 2.709402 7.682388 22.954924 -1.194729 104.131012 4.130067 9.555348 -0.142515 6.755349 9.480906 7.607417 -4.978069 -3.569185 9.884304 -0.592993 0.146199 -2.633188 5.671145 -10.933791 -9.050105 -5.437909 3.552486 -7.434737 2.021291 -0.322198 5.652546 
-163.054245 46.724678 -239.677963 0.302751 -0.605460 33.756466 21.006927 -0.771069 0.268681 -20.839844 0.000000 0.000000 0.034540 0.876769 6.247728 -2.520832 -1.255077 0.218355 -4.754609 -0.109184 -0.002653 -74.546288 -5.589554 40.421143 -2.656120 0.177261 0.454663 -1.059977 -3.513257 0.023902 4.754609 0.109184 -0.002672 78.530869 -0.326863 16.765305 37.604832 -1.699320 106.178757 9.539296 14.367335 0.566055 7.155583 9.334396 8.505649 -4.559964 -3.550253 10.322439 -0.856369 0.159214 -2.881474 5.447779 -11.062368 -8.563272 -5.491302 3.618241 -6.192608 2.154452 -0.304750 5.532271 
-163.057297 46.703865 -239.637833 0.283212 -0.458979 32.185158 21.006979 -0.835328 0.327683 -20.839844 0.000000 0.000000 0.906114 1.351143 6.976240 -2.520832 -1.255077 0.218355 -4.754609 -0.109184 -0.002653 -72.713623 -6.398322 38.587688 -2.646532 0.151565 -1.244360 -0.951258 -2.791061 -0.001803 4.754609 0.109184 -0.002672 76.005554 -1.770129 24.703358 49.114639 -1.730988 102.868835 13.450594 18.916769 1.926930 7.467845 9.187793 8.153808 -4.226737 -3.471795 11.808705 -1.110711 0.178893 -3.232277 5.260194 -11.206319 -8.713192 -5.509823 3.714978 -4.529759 2.208713 -0.321707 5.566885 
-163.174088 46.681023 -239.645981 0.234388 -0.605464 31.179062 20.997047 -0.827557 0.362168 -20.839844 0.000000 0.000000 1.428712 2.012013 7.270153 -2.520832 -1.255077 0.218355 -4.754609 -0.109184 -0.002653 -70.809753 -7.670290 36.459812 -2.647051 0.134983 -2.337984 -0.696611 -1.970922 -0.021245 4.754609 0.109184 -0.002672 73.723022 -2.323187 31.485123 58.350670 -1.756081 96.653282 16.270363 22.108553 3.068261 7.450008 9.462704 5.802634 -4.248565 -3.308689 15.171534 -0.974341 0.181275 -3.397748 4.878123 -10.939325 -8.562413 -5.526688 3.748352 -3.741405 2.295685 -0.297844 5.439289 
-163.316757 46.692696 -239.674393 -0.078135 -0.908202 30.391863 21.025980 -0.767105 0.395521 -20.839844 0.000000 0.000000 1.738737 2.814101 7.681615 -2.520832 -1.255077 0.218355 -4.754609 -0.109184 -0.002653 -69.633591 -7.952659 34.792377 -2.640043 0.092285 -5.101353 -0.180387 -2.868788 0.010724 4.754609 0.109184 -0.002672 71.447342 -2.658165 37.160591 67.386971 -1.767924 88.542641 20.770947 23.756586 4.382040 7.659431 9.974050 4.180672 -4.642451 -3.170678 17.876431 -0.588586 0.149952 -2.882844 4.255452 -10.434995 -8.054914 -4.706873 3.768095 -3.361584 2.015194 -0.300385 4.975843 
-163.298477 46.704369 -239.647995 -0.263724 -1.142566 29.516977 21.084347 -0.737394 0.427281 -20.839844 0.000000 0.000000 1.649428 3.034130 8.202345 -2.520832 -1.255077 0.218355 -4.754609 -0.109184 -0.002653 -68.841202 -7.324970 33.134388 -2.634327 0.054986 -7.464362 0.618064 -5.925570 0.061009 4.754609 0.109184 -0.002672 68.709610 -2.691441 40.507732 76.693253 -1.732634 80.755730 25.640276 24.638611 5.717541 8.060658 10.043985 5.575610 -5.012933 -3.169439 17.823328 -0.378536 0.057999 -1.400023 3.943096 -10.152414 -7.701649 -4.323075 3.794976 -2.730182 1.872848 -0.299357 4.646017 
-163.142624 46.709457 -239.528702 0.126983 -1.249997 29.538034 21.074793 -0.722221 0.359971 -20.839844 0.000000 0.000000 0.875295 2.648287 8.079674 -2.520832 -1.255077 0.218355 -4.754609 -0.109184 -0.002653 -67.868683 -6.887308 31.674238 -2.818519 0.057897 -7.600616 1.236342 -9.881953 0.095298 4.754609 0.109184 -0.002672 65.464333 -3.422568 39.341854 85.356094 -1.692123 74.866806 27.077869 26.458851 6.605502 7.707470 9.681224 7.214454 -4.735728 -3.248469 16.275438 -0.497963 -0.012066 0.005827 3.784692 -10.353354 -7.550855 -4.439280 3.784725 -2.894290 1.814901 -0.296971 4.772188 
-162.939041 46.707924 -239.326645 0.644697 -1.298746 30.766420 21.026186 -0.661161 0.227018 -20.839844 0.000000 0.000000 -0.083655 2.172474 7.368101 -2.520832 -1.255077 0.218355 -4.754609 -0.109184 -0.002653 -66.985329 -6.750081 31.676563 -7.586977 0.069937 -6.938155 2.250655 -9.903212 0.046242 4.754609 0.109184 -0.002672 62.512486 -6.436279 33.891228 92.473083 -1.620972 68.424477 23.660488 28.326855 6.309265 7.193406 9.352641 8.231481 -4.531434 -3.355798 14.070437 -0.654503 -0.030309 0.522133 3.990095 -10.675628 -7.242714 -4.684617 3.707717 -4.470234 1.589492 -0.336602 5.082805 
-162.789230 46.699814 -239.104782 0.761995 -1.542832 32.772198 21.016386 -0.530066 0.047348 -20.839844 0.000000 0.000000 -0.487696 2.294665 5.983273 -2.520832 -1.255077 0.218355 -4.754609 -0.109184 -0.002653 -66.333092 -6.701069 33.337757 -11.909925 0.069993 -6.437687 2.983035 -10.237108 -0.001313 4.754609 0.109184 -0.002672 60.403473 -12.863422 28.141563 100.007111 -1.326539 51.223381 20.983213 25.041410 4.940092 7.116478 9.567831 8.268378 -5.075769 -3.453362 12.169787 -0.404263 -0.045859 0.599477 4.412198 -10.525616 -7.207629 -4.402717 3.601312 -6.495433 1.000415 -0.357260 5.343566 
